<?xml version="1.0" standalone="no"?><!DOCTYPE svg PUBLIC "-//W3C//DTD SVG 1.1//EN" "http://www.w3.org/Graphics/SVG/1.1/DTD/svg11.dtd"><svg width="200" height="200" viewBox="0 0 200 200" version="1.1" xmlns="http://www.w3.org/2000/svg" xmlns:xlink="http://www.w3.org/1999/xlink"><defs><style type="text/css"><![CDATA[
@font-face { font-family: ifont; src: url("//at.alicdn.com/t/font_1442373896_4754455.eot?#iefix") format("embedded-opentype"), url("//at.alicdn.com/t/font_1442373896_4754455.woff") format("woff"), url("//at.alicdn.com/t/font_1442373896_4754455.ttf") format("truetype"), url("//at.alicdn.com/t/font_1442373896_4754455.svg#ifont") format("svg"); }

]]></style></defs><g class="transform-group"><g transform="scale(0.1953125, 0.1953125)"><path d="M436.662151 170.741709c-12.692067-12.692067-33.187867-12.773931-45.778626-0.184195L73.522504 487.918535c-12.590759 12.590759-12.507872 33.086559 0.184195 45.778626l0 0c12.692067 12.692067 33.187867 12.773931 45.778626 0.184195l317.361021-317.361021C449.436082 203.928552 449.354218 183.433776 436.662151 170.741709L436.662151 170.741709zM436.661128 851.255681c12.692067-12.692067 12.773931-33.187867 0.184195-45.778626L119.483278 488.116033c-12.590759-12.590759-33.086559-12.507872-45.778626 0.184195l0 0c-12.692067 12.692067-12.773931 33.187867-0.184195 45.778626l317.361021 317.361021C403.473261 864.029612 423.969061 863.947747 436.661128 851.255681L436.661128 851.255681zM129.606847 510.805802c0 17.520025 14.202467 31.722492 31.722492 31.722492l765.433036 0c17.520025 0 31.722492-14.202467 31.722492-31.722492l0 0c0-17.520025-14.202467-31.722492-31.722492-31.722492l-765.433036 0C143.809313 479.08331 129.606847 493.285776 129.606847 510.805802L129.606847 510.805802z" fill="#272636"></path></g></g></svg>